<!-- File: assets/icons/sprite.svg -->
<svg xmlns="http://www.w3.org/2000/svg" style="display:none">
  
  <!-- fontawesome 7.0.0: hand-holding-heart -->
  <symbol id="icon-heart" viewBox="0 0 640 640">
    <path d="M311.6 95C297.5 75.5 274.9 64 250.9 64C209.5 64 176 97.5 176 138.9L176 141.3C176 205.7 258 274.7 298.2 304.6C311.2 314.3 328.7 314.3 341.7 304.6C381.9 274.6 463.9 205.7 463.9 141.3L463.9 138.9C463.9 97.5 430.4 64 389 64C365 64 342.4 75.5 328.3 95L320 106.7L311.6 95zM141.3 405.5L98.7 448L64 448C46.3 448 32 462.3 32 480L32 544C32 561.7 46.3 576 64 576L384.5 576C413.5 576 441.8 566.7 465.2 549.5L591.8 456.2C609.6 443.1 613.4 418.1 600.3 400.3C587.2 382.5 562.2 378.7 544.4 391.8L424.6 480L312 480C298.7 480 288 469.3 288 456C288 442.7 298.7 432 312 432L384 432C401.7 432 416 417.7 416 400C416 382.3 401.7 368 384 368L231.8 368C197.9 368 165.3 381.5 141.3 405.5z"></path>
  </symbol>
  
  <!-- fontawesome 7.0.0: lock -->
  <symbol id="icon-lock" viewBox="0 0 640 640">
    <path d="M256 160L256 224L384 224L384 160C384 124.7 355.3 96 320 96C284.7 96 256 124.7 256 160zM192 224L192 160C192 89.3 249.3 32 320 32C390.7 32 448 89.3 448 160L448 224C483.3 224 512 252.7 512 288L512 512C512 547.3 483.3 576 448 576L192 576C156.7 576 128 547.3 128 512L128 288C128 252.7 156.7 224 192 224z"></path>
  </symbol>

  <!-- fontawesome 7.0.0: briefcase -->
  <symbol id="icon-briefcase" viewBox="0 0 640 640">
    <path d="M264 112L376 112C380.4 112 384 115.6 384 120L384 160L256 160L256 120C256 115.6 259.6 112 264 112zM208 120L208 160L128 160C92.7 160 64 188.7 64 224L64 320L576 320L576 224C576 188.7 547.3 160 512 160L432 160L432 120C432 89.1 406.9 64 376 64L264 64C233.1 64 208 89.1 208 120zM576 368L384 368L384 384C384 401.7 369.7 416 352 416L288 416C270.3 416 256 401.7 256 384L256 368L64 368L64 480C64 515.3 92.7 544 128 544L512 544C547.3 544 576 515.3 576 480L576 368z"></path>
  </symbol>

  <!-- fontawesome 7.0.0: house-laptop -->
  <symbol id="icon-house" viewBox="0 0 640 640">
    <path d="M448 304L467.9 304C483.4 304 496 291.4 496 275.9C496 268.3 492.9 261 487.4 255.7L283.5 59.1C276.1 52 266.3 48 256 48C245.7 48 235.9 52 228.5 59.1L24.6 255.7C19.1 261 16 268.3 16 275.9C16 291.4 28.6 304 44.1 304L64 304L64 448C64 483.3 92.7 512 128 512L213.7 512C221.1 505.4 230.1 500.6 240 498L240 368C240 362.5 240.7 357.1 242 352L232 352C218.7 352 208 341.3 208 328L208 280C208 266.7 218.7 256 232 256L280 256C293.3 256 304 266.7 304 280L304 304L448 304zM352 416L512 416L512 544L352 544L352 416zM288 384L288 544L256 544C247.2 544 240 551.2 240 560C240 586.5 261.5 608 288 608L576 608C602.5 608 624 586.5 624 560C624 551.2 616.8 544 608 544L576 544L576 384C576 366.3 561.7 352 544 352L320 352C302.3 352 288 366.3 288 384z"></path>
  </symbol>

  <!-- fontawesome 7.0.0: users -->
  <symbol id="icon-users" viewBox="0 0 640 640">
    <path d="M320 80C377.4 80 424 126.6 424 184C424 241.4 377.4 288 320 288C262.6 288 216 241.4 216 184C216 126.6 262.6 80 320 80zM96 152C135.8 152 168 184.2 168 224C168 263.8 135.8 296 96 296C56.2 296 24 263.8 24 224C24 184.2 56.2 152 96 152zM0 480C0 409.3 57.3 352 128 352C140.8 352 153.2 353.9 164.9 357.4C132 394.2 112 442.8 112 496L112 512C112 523.4 114.4 534.2 118.7 544L32 544C14.3 544 0 529.7 0 512L0 480zM521.3 544C525.6 534.2 528 523.4 528 512L528 496C528 442.8 508 394.2 475.1 357.4C486.8 353.9 499.2 352 512 352C582.7 352 640 409.3 640 480L640 512C640 529.7 625.7 544 608 544L521.3 544zM472 224C472 184.2 504.2 152 544 152C583.8 152 616 184.2 616 224C616 263.8 583.8 296 544 296C504.2 296 472 263.8 472 224zM160 496C160 407.6 231.6 336 320 336C408.4 336 480 407.6 480 496L480 512C480 529.7 465.7 544 448 544L192 544C174.3 544 160 529.7 160 512L160 496z"></path>
  </symbol>

  <!-- fontawesome 7.0.0: calendar-check -->
  <symbol id="icon-calendar" viewBox="0 0 640 640">
    <path d="M224 64C241.7 64 256 78.3 256 96L256 128L384 128L384 96C384 78.3 398.3 64 416 64C433.7 64 448 78.3 448 96L448 128L480 128C515.3 128 544 156.7 544 192L544 480C544 515.3 515.3 544 480 544L160 544C124.7 544 96 515.3 96 480L96 192C96 156.7 124.7 128 160 128L192 128L192 96C192 78.3 206.3 64 224 64zM404.4 292.7C411.4 281.5 408 266.7 396.8 259.6C385.6 252.5 370.8 256 363.7 267.2L302.3 365.5L275.3 329.5C267.3 318.9 252.3 316.7 241.7 324.7C231.1 332.7 228.9 347.7 236.9 358.3L284.9 422.3C289.6 428.6 297.2 432.2 305.1 431.9C313 431.6 320.2 427.4 324.4 420.6L404.4 292.6z"></path>
  </symbol>

  <!-- fontawesome 7.0.0: whatsapp -->
  <symbol id="icon-whatsapp" viewBox="0 0 640 640">
    <path d="M476.9 161.1C435 119.1 379.2 96 319.9 96C197.5 96 97.9 195.6 97.9 318C97.9 357.1 108.1 395.3 127.5 429L96 544L213.7 513.1C246.1 530.8 282.6 540.1 319.8 540.1L319.9 540.1C442.2 540.1 544 440.5 544 318.1C544 258.8 518.8 203.1 476.9 161.1zM319.9 502.7C286.7 502.7 254.2 493.8 225.9 477L219.2 473L149.4 491.3L168 423.2L163.6 416.2C145.1 386.8 135.4 352.9 135.4 318C135.4 216.3 218.2 133.5 320 133.5C369.3 133.5 415.6 152.7 450.4 187.6C485.2 222.5 506.6 268.8 506.5 318.1C506.5 419.9 421.6 502.7 319.9 502.7zM421.1 364.5C415.6 361.7 388.3 348.3 383.2 346.5C378.1 344.6 374.4 343.7 370.7 349.3C367 354.9 356.4 367.3 353.1 371.1C349.9 374.8 346.6 375.3 341.1 372.5C308.5 356.2 287.1 343.4 265.6 306.5C259.9 296.7 271.3 297.4 281.9 276.2C283.7 272.5 282.8 269.3 281.4 266.5C280 263.7 268.9 236.4 264.3 225.3C259.8 214.5 255.2 216 251.8 215.8C248.6 215.6 244.9 215.6 241.2 215.6C237.5 215.6 231.5 217 226.4 222.5C221.3 228.1 207 241.5 207 268.8C207 296.1 226.9 322.5 229.6 326.2C232.4 329.9 268.7 385.9 324.4 410C359.6 425.2 373.4 426.5 391 423.9C401.7 422.3 423.8 410.5 428.4 397.5C433 384.5 433 373.4 431.6 371.1C430.3 368.6 426.6 367.2 421.1 364.5z"></path>
  </symbol>

  <!-- fontawesome 7.0.0: instagram -->
  <symbol id="icon-instagram" viewBox="0 0 640 640">
    <path d="M320.3 205C256.8 204.8 205.2 256.2 205 319.7C204.8 383.2 256.2 434.8 319.7 435C383.2 435.2 434.8 383.8 435 320.3C435.2 256.8 383.8 205.2 320.3 205zM319.7 245.4C360.9 245.2 394.4 278.5 394.6 319.7C394.8 360.9 361.5 394.4 320.3 394.6C279.1 394.8 245.6 361.5 245.4 320.3C245.2 279.1 278.5 245.6 319.7 245.4zM413.1 200.3C413.1 185.5 425.1 173.5 439.9 173.5C454.7 173.5 466.7 185.5 466.7 200.3C466.7 215.1 454.7 227.1 439.9 227.1C425.1 227.1 413.1 215.1 413.1 200.3zM542.8 227.5C541.1 191.6 532.9 159.8 506.6 133.6C480.4 107.4 448.6 99.2 412.7 97.4C375.7 95.3 264.8 95.3 227.8 97.4C192 99.1 160.2 107.3 133.9 133.5C107.6 159.7 99.5 191.5 97.7 227.4C95.6 264.4 95.6 375.3 97.7 412.3C99.4 448.2 107.6 480 133.9 506.2C160.2 532.4 191.9 540.6 227.8 542.4C264.8 544.5 375.7 544.5 412.7 542.4C448.6 540.7 480.4 532.5 506.6 506.2C532.8 480 541 448.2 542.8 412.3C544.9 375.3 544.9 264.5 542.8 227.5zM495 452C487.2 471.6 472.1 486.7 452.4 494.6C422.9 506.3 352.9 503.6 320.3 503.6C287.7 503.6 217.6 506.2 188.2 494.6C168.6 486.8 153.5 471.7 145.6 452C133.9 422.5 136.6 352.5 136.6 319.9C136.6 287.3 134 217.2 145.6 187.8C153.4 168.2 168.5 153.1 188.2 145.2C217.7 133.5 287.7 136.2 320.3 136.2C352.9 136.2 423 133.6 452.4 145.2C472 153 487.1 168.1 495 187.8C506.7 217.3 504 287.3 504 319.9C504 352.5 506.7 422.6 495 452z"></path>
  </symbol>

  <!-- fontawesome 7.0.0: facebook-f -->
  <symbol id="icon-facebook" viewBox="0 0 640 640">
    <path d="M240 363.3L240 576L356 576L356 363.3L442.5 363.3L460.5 265.5L356 265.5L356 230.9C356 179.2 376.3 159.4 428.7 159.4C445 159.4 458.1 159.8 465.7 160.6L465.7 71.9C451.4 68 416.4 64 396.2 64C289.3 64 240 114.5 240 223.4L240 265.5L174 265.5L174 363.3L240 363.3z"></path>
  </symbol>

  <!-- fontawesome 7.0.0: xmark -->
  <symbol id="icon-close" viewBox="0 0 640 640">
    <path d="M183.1 137.4C170.6 124.9 150.3 124.9 137.8 137.4C125.3 149.9 125.3 170.2 137.8 182.7L275.2 320L137.9 457.4C125.4 469.9 125.4 490.2 137.9 502.7C150.4 515.2 170.7 515.2 183.2 502.7L320.5 365.3L457.9 502.6C470.4 515.1 490.7 515.1 503.2 502.6C515.7 490.1 515.7 469.8 503.2 457.3L365.8 320L503.1 182.6C515.6 170.1 515.6 149.8 503.1 137.3C490.6 124.8 470.3 124.8 457.8 137.3L320.5 274.7L183.1 137.4z"></path>
  </symbol>

  <!-- fontawesome 7.0.0: square-linkedin -->
  <symbol id="icon-linkedin" viewBox="0 0 640 640">
    <path d="M160 96C124.7 96 96 124.7 96 160L96 480C96 515.3 124.7 544 160 544L480 544C515.3 544 544 515.3 544 480L544 160C544 124.7 515.3 96 480 96L160 96zM165 266.2L231.5 266.2L231.5 480L165 480L165 266.2zM236.7 198.5C236.7 219.8 219.5 237 198.2 237C176.9 237 159.7 219.8 159.7 198.5C159.7 177.2 176.9 160 198.2 160C219.5 160 236.7 177.2 236.7 198.5zM413.9 480L413.9 376C413.9 351.2 413.4 319.3 379.4 319.3C344.8 319.3 339.5 346.3 339.5 374.2L339.5 480L273.1 480L273.1 266.2L336.8 266.2L336.8 295.4L337.7 295.4C346.6 278.6 368.3 260.9 400.6 260.9C467.8 260.9 480.3 305.2 480.3 362.8L480.3 480L413.9 480z"></path>
  </symbol>

  <!-- fontawesome 7.0.0: hands-holding-child -->
  <symbol id="icon-child" viewBox="0 0 640 640">
    <path d="M320 32C342.1 32 360 49.9 360 72C360 94.1 342.1 112 320 112C297.9 112 280 94.1 280 72C280 49.9 297.9 32 320 32zM40 128C62.1 128 80 145.9 80 168L80 328.2C80 345.2 86.7 361.5 98.7 373.5L149.8 424.6C158.1 432.9 171.1 434.2 180.8 427.7C193.7 419.1 195.5 400.8 184.5 389.9C177.2 382.6 161.4 366.8 137.3 342.7C124.8 330.2 124.8 309.9 137.3 297.4C149.8 284.9 170.1 284.9 182.6 297.4C206.7 321.5 222.5 337.3 229.8 344.6L229.8 344.6L255.1 369.9C276.1 390.9 287.9 419.4 287.9 449.1L287.9 528C287.9 554.5 266.4 576 239.9 576L173.2 576C156.2 576 139.9 569.3 127.9 557.3L28.1 457.4C10.1 439.4 0 415 0 389.5L0 168C0 145.9 17.9 128 40 128zM600 128C622.1 128 640 145.9 640 168L640 389.5C640 415 629.9 439.4 611.9 457.4L512 557.3C500 569.3 483.7 576 466.7 576L400 576C373.5 576 352 554.5 352 528L352 449.1C352 419.4 363.8 390.9 384.8 369.9L410.1 344.6L410.1 344.6C417.4 337.3 433.2 321.5 457.3 297.4C469.8 284.9 490.1 284.9 502.6 297.4C515.1 309.9 515.1 330.2 502.6 342.7C478.5 366.8 462.7 382.6 455.4 389.9C444.4 400.9 446.2 419.1 459.1 427.7C468.8 434.2 481.8 432.9 490.1 424.6L541.2 373.5C553.2 361.5 559.9 345.2 559.9 328.2L560 168C560 145.9 577.9 128 600 128zM384.5 213L364.7 196.3L375.8 285.1C377.4 298.3 368.1 310.2 355 311.9C341.9 313.6 329.9 304.2 328.2 291.1L323.8 256.1L316.2 256.1L311.8 291.1C310.2 304.3 298.2 313.6 285 311.9C271.8 310.2 262.5 298.3 264.2 285.1L275.3 196.3L255.5 213C245.4 221.6 230.2 220.3 221.7 210.2C213.2 200.1 214.4 184.9 224.5 176.4L252.4 152.8C271.3 136.8 295.3 128 320 128C344.7 128 368.7 136.8 387.6 152.7L415.5 176.3C425.6 184.9 426.9 200 418.3 210.1C409.7 220.2 394.6 221.5 384.5 212.9z"></path>
  </symbol>

  <!-- fontawesome 7.0.0: square-phone -->
  <symbol id="icon-phone" viewBox="0 0 640 640">
    <path d="M160 96C124.7 96 96 124.7 96 160L96 480C96 515.3 124.7 544 160 544L480 544C515.3 544 544 515.3 544 480L544 160C544 124.7 515.3 96 480 96L160 96zM248 192.7C257.8 190 268.1 195.1 272 204.5L292.3 253.2C295.7 261.5 293.4 271 286.4 276.7L264.3 294.7C280.5 330.5 308.8 359.7 343.9 377.1L363.2 353.5C368.9 346.6 378.4 344.2 386.7 347.6L435.4 367.9C444.8 371.8 449.8 382.1 447.2 391.9L446.4 394.7C437.6 427 406.3 454.6 368.2 446.5C280.7 428 211.9 359.1 193.3 271.6C185.2 233.5 212.8 202.2 245.1 193.4L247.9 192.6z"></path>
  </symbol>

  <!-- fontawesome 7.0.0: envelope -->
  <symbol id="icon-email" viewBox="0 0 640 640">
    <path d="M112 128C85.5 128 64 149.5 64 176C64 191.1 71.1 205.3 83.2 214.4L291.2 370.4C308.3 383.2 331.7 383.2 348.8 370.4L556.8 214.4C568.9 205.3 576 191.1 576 176C576 149.5 554.5 128 528 128L112 128zM64 260L64 448C64 483.3 92.7 512 128 512L512 512C547.3 512 576 483.3 576 448L576 260L377.6 408.8C343.5 434.4 296.5 434.4 262.4 408.8L64 260z"></path>
  </symbol>

  <!-- fontawesome 7.0.0: calendar-days -->
  <symbol id="icon-days" viewBox="0 0 640 640">
    <path d="M224 64C241.7 64 256 78.3 256 96L256 128L384 128L384 96C384 78.3 398.3 64 416 64C433.7 64 448 78.3 448 96L448 128L480 128C515.3 128 544 156.7 544 192L544 480C544 515.3 515.3 544 480 544L160 544C124.7 544 96 515.3 96 480L96 192C96 156.7 124.7 128 160 128L192 128L192 96C192 78.3 206.3 64 224 64zM160 304L160 336C160 344.8 167.2 352 176 352L208 352C216.8 352 224 344.8 224 336L224 304C224 295.2 216.8 288 208 288L176 288C167.2 288 160 295.2 160 304zM288 304L288 336C288 344.8 295.2 352 304 352L336 352C344.8 352 352 344.8 352 336L352 304C352 295.2 344.8 288 336 288L304 288C295.2 288 288 295.2 288 304zM432 288C423.2 288 416 295.2 416 304L416 336C416 344.8 423.2 352 432 352L464 352C472.8 352 480 344.8 480 336L480 304C480 295.2 472.8 288 464 288L432 288zM160 432L160 464C160 472.8 167.2 480 176 480L208 480C216.8 480 224 472.8 224 464L224 432C224 423.2 216.8 416 208 416L176 416C167.2 416 160 423.2 160 432zM304 416C295.2 416 288 423.2 288 432L288 464C288 472.8 295.2 480 304 480L336 480C344.8 480 352 472.8 352 464L352 432C352 423.2 344.8 416 336 416L304 416zM416 432L416 464C416 472.8 423.2 480 432 480L464 480C472.8 480 480 472.8 480 464L480 432C480 423.2 472.8 416 464 416L432 416C423.2 416 416 423.2 416 432z"></path>
  </symbol>

  <!-- fontawesome 7.0.0: clock -->
  <symbol id="icon-clock" viewBox="0 0 640 640">
    <path d="M320 64C461.4 64 576 178.6 576 320C576 461.4 461.4 576 320 576C178.6 576 64 461.4 64 320C64 178.6 178.6 64 320 64zM296 184L296 320C296 328 300 335.5 306.7 340L402.7 404C413.7 411.4 428.6 408.4 436 397.3C443.4 386.2 440.4 371.4 429.3 364L344 307.2L344 184C344 170.7 333.3 160 320 160C306.7 160 296 170.7 296 184z"></path>
  </symbol>

</svg>